<?xml version="1.0" encoding="UTF-8"?>
<svg version="1.1" xmlns="http://www.w3.org/2000/svg" width="599" height="478">
<path d="M0 0 C24.42 0 48.84 0 74 0 C74 0.66 74 1.32 74 2 C77.3 2 80.6 2 84 2 C84 2.66 84 3.32 84 4 C89.445 4.495 89.445 4.495 95 5 C95 5.66 95 6.32 95 7 C97.64 7 100.28 7 103 7 C103 7.99 103 8.98 103 10 C105.31 10 107.62 10 110 10 C110 10.99 110 11.98 110 13 C112.31 13 114.62 13 117 13 C117 13.66 117 14.32 117 15 C117.804375 15.12375 118.60875 15.2475 119.4375 15.375 C120.283125 15.58125 121.12875 15.7875 122 16 C122.33 16.66 122.66 17.32 123 18 C123.66 18.165 124.32 18.33 125 18.5 C125.66 18.665 126.32 18.83 127 19 C127.33 19.66 127.66 20.32 128 21 C130.02463255 21.65213292 130.02463255 21.65213292 132 22 C132 22.66 132 23.32 132 24 C133.65 24 135.3 24 137 24 C137 24.99 137 25.98 137 27 C138.32 27 139.64 27 141 27 C141 27.99 141 28.98 141 30 C142.32 30 143.64 30 145 30 C145.33 30.66 145.66 31.32 146 32 C148.01669827 33.13350534 148.01669827 33.13350534 150 34 C150 34.66 150 35.32 150 36 C150.66 36 151.32 36 152 36 C153.625 37.375 153.625 37.375 155 39 C155 39.66 155 40.32 155 41 C155.99 41 156.98 41 158 41 C158 41.99 158 42.98 158 44 C158.99 44 159.98 44 161 44 C161 44.99 161 45.98 161 47 C161.99 47 162.98 47 164 47 C164 47.99 164 48.98 164 50 C164.99 50 165.98 50 167 50 C167 50.99 167 51.98 167 53 C167.66 53 168.32 53 169 53 C170.625 54.375 170.625 54.375 172 56 C172 56.66 172 57.32 172 58 C172.99 58 173.98 58 175 58 C175 58.99 175 59.98 175 61 C175.99 61 176.98 61 178 61 C178.33 62.98 178.66 64.96 179 67 C179.66 67 180.32 67 181 67 C181 67.99 181 68.98 181 70 C181.99 70 182.98 70 184 70 C184 70.99 184 71.98 184 73 C184.99 73 185.98 73 187 73 C187 74.65 187 76.3 187 78 C187.66 78 188.32 78 189 78 C189.28875 78.61875 189.5775 79.2375 189.875 79.875 C190.93720042 82.13325765 190.93720042 82.13325765 193 84 C193 84.66 193 85.32 193 86 C193.66 86.33 194.32 86.66 195 87 C195 88.65 195 90.3 195 92 C195.99 92 196.98 92 198 92 C198 93.98 198 95.96 198 98 C198.99 98 199.98 98 201 98 C201 99.98 201 101.96 201 104 C201.99 104 202.98 104 204 104 C204.185625 105.2065625 204.185625 105.2065625 204.375 106.4375 C204.58125 107.283125 204.7875 108.12875 205 109 C205.66 109.33 206.32 109.66 207 110 C207 112.64 207 115.28 207 118 C207.99 118.33 208.98 118.66 210 119 C210 121.31 210 123.62 210 126 C210.66 126 211.32 126 212 126 C212.1953125 128.05078125 212.390625 130.1015625 212.5859375 132.15234375 C212.72257813 132.76207031 212.85921875 133.37179688 213 134 C213.66 134.33 214.32 134.66 215 135 C215 137.64 215 140.28 215 143 C215.99 143.33 216.98 143.66 218 144 C218 147.63 218 151.26 218 155 C218.99 155 219.98 155 221 155 C221 159.62 221 164.24 221 169 C221.99 169 222.98 169 224 169 C223.814375 169.804375 223.62875 170.60875 223.4375 171.4375 C223.293125 172.283125 223.14875 173.12875 223 174 C223.33 174.33 223.66 174.66 224 175 C224.08651611 176.41570123 224.10704904 177.835595 224.09765625 179.25390625 C224.09443359 180.10791016 224.09121094 180.96191406 224.08789062 181.84179688 C224.07951172 182.73962891 224.07113281 183.63746094 224.0625 184.5625 C224.05798828 185.46419922 224.05347656 186.36589844 224.04882812 187.29492188 C224.03700225 189.53001314 224.0205222 191.76497437 224 194 C224.66 194 225.32 194 226 194 C226 195.98 226 197.96 226 200 C215.97917961 200.03195798 205.95836278 200.05142487 195.9375 200.0625 C194.78428316 200.06378403 194.78428316 200.06378403 193.60776901 200.06509399 C164.75660052 200.09332028 135.91136316 199.85231861 107.0625 199.5 C105.5931708 199.48206327 105.5931708 199.48206327 104.09415817 199.46376419 C92.06267828 199.31624678 80.03129769 199.16167797 68 199 C68.1373053 199.93884033 68.2746106 200.87768066 68.41607666 201.8449707 C68.596203 203.08851318 68.77632935 204.33205566 68.96191406 205.61328125 C69.14046936 206.84087158 69.31902466 208.06846191 69.50299072 209.33325195 C71.10966455 221.18668891 71.24167353 233.05941939 71.25 245 C71.25067474 245.87616974 71.25134949 246.75233948 71.25204468 247.65505981 C71.19419966 295.28853893 60.8995416 339.31675827 38.00219727 381.13500977 C36.96160688 383.07144581 35.97399464 385.02934697 35 387 C67.41279874 394.30919488 98.78764255 388.94973321 127.21484375 372.09375 C155.35592656 354.04795708 174.61669213 327.0524253 189.68359375 297.72265625 C192.82797119 291.63808173 195.53843975 286.52632324 202.375 284.1875 C203.179375 284.0946875 203.179375 284.0946875 204 284 C204.66 284.99 205.32 285.98 206 287 C207.32594105 287.36162029 208.65938457 287.69728039 210 288 C210.33 288.66 210.66 289.32 211 290 C213.02463255 290.65213292 213.02463255 290.65213292 215 291 C215 291.66 215 292.32 215 293 C215.99 293 216.98 293 218 293 C218.05383848 295.45862401 218.09359038 297.9160755 218.125 300.375 C218.14175781 301.07367188 218.15851562 301.77234375 218.17578125 302.4921875 C218.19344267 304.32897486 218.10303261 306.16601963 218 308 C217.34 308.66 216.68 309.32 216 310 C215.53709779 312.66242821 215.53709779 312.66242821 215.375 315.625 C215.30023437 316.62789063 215.22546875 317.63078125 215.1484375 318.6640625 C215.09945312 319.43492187 215.05046875 320.20578125 215 321 C214.01 321.33 213.02 321.66 212 322 C212 324.64 212 327.28 212 330 C211.34 330 210.68 330 210 330 C210.061875 331.60875 210.061875 331.60875 210.125 333.25 C210.00255952 336.92321432 209.58959682 337.91431206 208 341 C207.5311656 343.66359761 207.26945451 346.30545491 207 349 C206.34 348.67 205.68 348.34 205 348 C204.67 350.31 204.34 352.62 204 355 C203.01 355.33 202.02 355.66 201 356 C201.061875 357.175625 201.061875 357.175625 201.125 358.375 C201 361 201 361 199 363 C198.35232207 365.57061311 198.35232207 365.57061311 198 368 C197.34 368 196.68 368 196 368 C195.67 369.98 195.34 371.96 195 374 C194.34 374 193.68 374 193 374 C193 375.65 193 377.3 193 379 C192.01 379 191.02 379 190 379 C190 380.65 190 382.3 190 384 C189.01 384 188.02 384 187 384 C187 385.65 187 387.3 187 389 C186.01 389.33 185.02 389.66 184 390 C184 390.99 184 391.98 184 393 C183.34 393 182.68 393 182 393 C181.67 394.65 181.34 396.3 181 398 C180.01 398 179.02 398 178 398 C178 398.99 178 399.98 178 401 C177.34 401 176.68 401 176 401 C175.67 402.98 175.34 404.96 175 407 C174.01 407 173.02 407 172 407 C172 407.66 172 408.32 172 409 C171.34 409 170.68 409 170 409 C170 409.99 170 410.98 170 412 C169.01 412.495 169.01 412.495 168 413 C167.67 413.99 167.34 414.98 167 416 C166.34 416 165.68 416 165 416 C164.67 417.65 164.34 419.3 164 421 C163.01 421 162.02 421 161 421 C161 421.99 161 422.98 161 424 C160.01 424 159.02 424 158 424 C158 424.66 158 425.32 158 426 C156.33784732 427.33895632 154.67036393 428.67130142 153 430 C152.29875 430.9075 151.5975 431.815 150.875 432.75 C150.25625 433.4925 149.6375 434.235 149 435 C148.01 435 147.02 435 146 435 C146 435.99 146 436.98 146 438 C144.68 438 143.36 438 142 438 C142 438.99 142 439.98 142 441 C141.01 441 140.02 441 139 441 C139 441.66 139 442.32 139 443 C138.01 443.33 137.02 443.66 136 444 C135.484375 444.515625 134.96875 445.03125 134.4375 445.5625 C133.963125 446.036875 133.48875 446.51125 133 447 C132.34 447 131.68 447 131 447 C131 447.66 131 448.32 131 449 C129.68 449 128.36 449 127 449 C126.67 449.99 126.34 450.98 126 452 C123.86922732 453.3942467 121.8161221 454.58703306 119.5625 455.75 C118.89508789 456.09780518 118.22767578 456.44561035 117.54003906 456.80395508 C86.2366442 472.71952639 48.52727334 480.24398713 14 472 C13.0502832 471.77425293 12.10056641 471.54850586 11.12207031 471.31591797 C-4.24723315 467.57841567 -18.97099596 462.72832535 -33.6418457 456.82861328 C-38.40026234 455.11175191 -38.40026234 455.11175191 -43.2980957 455.69335938 C-44.08273193 456.07298828 -44.86736816 456.45261719 -45.67578125 456.84375 C-46.57385498 457.26253418 -47.47192871 457.68131836 -48.3972168 458.11279297 C-49.35926025 458.57057129 -50.32130371 459.02834961 -51.3125 459.5 C-66.46262066 466.38345328 -82.09518427 470.94715508 -98.375 474.3125 C-99.08551514 474.45993652 -99.79603027 474.60737305 -100.52807617 474.75927734 C-116.08379302 477.72740764 -131.60473695 478.34803024 -147.40185547 478.31567383 C-150.60028571 478.31252434 -153.79777753 478.3360382 -156.99609375 478.36132812 C-175.82737034 478.42013578 -194.58832778 476.91308954 -212.875 472.1875 C-214.42610474 471.79848511 -214.42610474 471.79848511 -216.00854492 471.40161133 C-249.78978804 462.74237099 -280.7310543 447.32466522 -306 423 C-306.55510254 422.47599609 -307.11020508 421.95199219 -307.68212891 421.41210938 C-346.87070273 384.29595814 -368.0083019 330.35079781 -372 277 C-372.12592529 275.38399902 -372.12592529 275.38399902 -372.25439453 273.73535156 C-372.91665433 264.65326993 -373.24195396 255.60757654 -373.25 246.5 C-373.25067474 245.7977832 -373.25134949 245.09556641 -373.25204468 244.37207031 C-373.16212912 184.43284366 -357.09089576 125.54928063 -317 80 C-316.35160156 79.22914062 -315.70320313 78.45828125 -315.03515625 77.6640625 C-311.05258666 72.95000054 -306.72734021 68.95569533 -302 65 C-301.12601562 64.23816406 -300.25203125 63.47632813 -299.3515625 62.69140625 C-259.05631558 28.06774234 -206.599187 13.29113377 -154.14550781 13.60888672 C-151.0002104 13.62499892 -147.85619718 13.60889705 -144.7109375 13.58984375 C-125.86324122 13.5690647 -107.09474457 15.16576358 -88.8125 19.9375 C-87.26381226 20.32446045 -87.26381226 20.32446045 -85.68383789 20.71923828 C-78.3801026 22.56920323 -71.13995081 24.58689535 -64 27 C-64 26.01 -64 25.02 -64 24 C-62.68 24 -61.36 24 -60 24 C-60 23.34 -60 22.68 -60 22 C-59.360625 21.87625 -58.72125 21.7525 -58.0625 21.625 C-57.381875 21.41875 -56.70125 21.2125 -56 21 C-55.67 20.34 -55.34 19.68 -55 19 C-53.35 19 -51.7 19 -50 19 C-50 18.01 -50 17.02 -50 16 C-48.35 15.67 -46.7 15.34 -45 15 C-45 14.34 -45 13.68 -45 13 C-42.69 13 -40.38 13 -38 13 C-38 12.01 -38 11.02 -38 10 C-34.535 9.505 -34.535 9.505 -31 9 C-31 8.34 -31 7.68 -31 7 C-28.03 7 -25.06 7 -22 7 C-22 6.34 -22 5.68 -22 5 C-18.7 4.67 -15.4 4.34 -12 4 C-12 3.34 -12 2.68 -12 2 C-8.04 2 -4.08 2 0 2 C0 1.34 0 0.68 0 0 Z M-206 69 C-206.60714844 69.52722656 -207.21429688 70.05445312 -207.83984375 70.59765625 C-246.65587739 106.3084072 -253.72030665 171.44974985 -255.859375 220.73339844 C-258.27641849 288.4702471 -255.48331578 367.80622387 -208.2265625 420.99609375 C-193.95012003 436.04333006 -174.16631403 443.88832776 -153.72363281 444.47094727 C-131.85680066 444.66427216 -111.94980111 438.46841878 -96 423 C-95.67 422.34 -95.34 421.68 -95 421 C-95.33 420.01 -95.66 419.02 -96 418 C-96.99 418 -97.98 418 -99 418 C-99 417.01 -99 416.02 -99 415 C-99.66 415 -100.32 415 -101 415 C-101.66 413.35 -102.32 411.7 -103 410 C-103.66 410 -104.32 410 -105 410 C-105 409.01 -105 408.02 -105 407 C-105.66 407 -106.32 407 -107 407 C-107 406.01 -107 405.02 -107 404 C-107.99 404 -108.98 404 -110 404 C-110.33 402.35 -110.66 400.7 -111 399 C-111.66 399 -112.32 399 -113 399 C-113 397.68 -113 396.36 -113 395 C-113.99 395 -114.98 395 -116 395 C-116 393.35 -116 391.7 -116 390 C-116.99 390 -117.98 390 -119 390 C-119 389.01 -119 388.02 -119 387 C-119.66 386.67 -120.32 386.34 -121 386 C-121.33333333 384.33333333 -121.66666667 382.66666667 -122 381 C-122.66 380.67 -123.32 380.34 -124 380 C-124.625 377.4375 -124.625 377.4375 -125 375 C-125.66 375 -126.32 375 -127 375 C-127 373.35 -127 371.7 -127 370 C-127.99 370 -128.98 370 -130 370 C-130 368.02 -130 366.04 -130 364 C-130.99 364 -131.98 364 -133 364 C-132.979375 363.05125 -132.95875 362.1025 -132.9375 361.125 C-132.77448174 358.09333717 -132.77448174 358.09333717 -134 356 C-134.66 356 -135.32 356 -136 356 C-136 354.02 -136 352.04 -136 350 C-136.99 350 -137.98 350 -139 350 C-139 347.03 -139 344.06 -139 341 C-139.66 340.67 -140.32 340.34 -141 340 C-141 337.69 -141 335.38 -141 333 C-141.99 333 -142.98 333 -144 333 C-144 329.37 -144 325.74 -144 322 C-144.99 322 -145.98 322 -147 322 C-147 318.04 -147 314.08 -147 310 C-147.99 310 -148.98 310 -150 310 C-150 304.39 -150 298.78 -150 293 C-150.99 293 -151.98 293 -153 293 C-153.02338771 281.66268829 -153.04104755 270.32538252 -153.05181217 258.98805141 C-153.05698411 253.72111076 -153.06397546 248.45418687 -153.07543945 243.18725586 C-153.08647423 238.08435469 -153.0923194 232.98146941 -153.09487724 227.87855721 C-153.09669507 225.95217705 -153.10024232 224.02579756 -153.10573006 222.09942436 C-153.13467089 211.49805641 -153.00713407 200.91164259 -152.61889648 190.31665039 C-152.58842004 189.32949508 -152.55794359 188.34233976 -152.52654362 187.32527065 C-152.48829188 186.41045957 -152.45004015 185.49564848 -152.41062927 184.55311584 C-152.36443026 183.34072282 -152.36443026 183.34072282 -152.31729794 182.10383701 C-152 180 -152 180 -150 177 C-149.75729175 173.56692835 -149.75729175 173.56692835 -149.875 169.8125 C-149.89304687 168.54019531 -149.91109375 167.26789063 -149.9296875 165.95703125 C-149.95289063 164.98121094 -149.97609375 164.00539063 -150 163 C-149.01 163 -148.02 163 -147 163 C-147 158.38 -147 153.76 -147 149 C-146.01 149 -145.02 149 -144 149 C-144 146.03 -144 143.06 -144 140 C-143.34 140 -142.68 140 -142 140 C-141.83197949 138.54182203 -141.66562857 137.0834516 -141.5 135.625 C-141.4071875 134.81289062 -141.314375 134.00078125 -141.21875 133.1640625 C-140.96647649 131.03087175 -140.96647649 131.03087175 -141 129 C-140.34 129 -139.68 129 -139 129 C-139 126.36 -139 123.72 -139 121 C-138.01 121 -137.02 121 -136 121 C-136 119.02 -136 117.04 -136 115 C-135.01 115 -134.02 115 -133 115 C-133 112.36 -133 109.72 -133 107 C-132.01 107 -131.02 107 -130 107 C-130 105.02 -130 103.04 -130 101 C-129.01 101 -128.02 101 -127 101 C-127 99.02 -127 97.04 -127 95 C-126.01 95 -125.02 95 -124 95 C-124 93.68 -124 92.36 -124 91 C-123.0206121 89.97980427 -122.02104551 88.97850195 -121 88 C-121 87.01 -121 86.02 -121 85 C-120.34 84.67 -119.68 84.34 -119 84 C-119 83.01 -119 82.02 -119 81 C-118.01 81 -117.02 81 -116 81 C-116 79.02 -116 77.04 -116 75 C-115.01 75 -114.02 75 -113 75 C-113 74.34 -113 73.68 -113 73 C-112.01 72.67 -111.02 72.34 -110 72 C-110 70.35 -110 68.7 -110 67 C-109.01 67 -108.02 67 -107 67 C-107 66.01 -107 65.02 -107 64 C-106.34 64 -105.68 64 -105 64 C-106.04018165 60.69502568 -107.1766469 59.88847939 -110.16796875 58 C-142.13761461 41.5443815 -179.09512914 44.18924768 -206 69 Z M5 70 C5.40089844 70.37769531 5.80179687 70.75539063 6.21484375 71.14453125 C11.62854138 76.38636546 16.32043166 82.10267165 21 88 C21.81855469 89.01320313 22.63710938 90.02640625 23.48046875 91.0703125 C35.77860765 106.4782158 44.83615598 123.82299284 52.1875 142.0625 C52.49631104 142.82844482 52.80512207 143.59438965 53.12329102 144.38354492 C56.05673918 151.84448648 58.4541202 159.36236061 61 167 C81.46 167 101.92 167 123 167 C129.20424456 148.38726632 123.40015889 119.66206608 115.13623047 102.171875 C106.46019615 84.95774014 94.09793602 72.20071362 76 65 C67.58071189 62.27028396 58.85892962 60.33077172 50 60 C49.0821875 59.96003906 48.164375 59.92007813 47.21875 59.87890625 C33.92610891 59.58157086 15.6262373 60.93333484 5 70 Z M-55 199 C-65.10010976 231.52235343 -58.81914947 266.28414722 -49 298 C-48.67 298 -48.34 298 -48 298 C-46.08895576 280.46007004 -45.80085829 263.00151264 -45.8125 245.375 C-45.8117749 244.29953918 -45.8110498 243.22407837 -45.81030273 242.11602783 C-45.33161089 220.42139191 -45.33161089 220.42139191 -48 199 C-50.31 199 -52.62 199 -55 199 Z " fill="#000000" transform="translate(373,0)"/>
<path d="M0 0 C0.99 0 1.98 0 3 0 C3 0.66 3 1.32 3 2 C2.01 2 1.02 2 0 2 C0 1.34 0 0.68 0 0 Z " fill="#000000" transform="translate(574,393)"/>
<path d="" fill="#000000" transform="translate(0,0)"/>
</svg>
